<svg xmlns="http://www.w3.org/2000/svg" viewBox="0 0 40 40">
  <defs>
    <linearGradient id="a" x1="0" y1="0" x2="0" y2="1">
      <stop offset="0%" stop-color="#15566e"/>
      <stop offset="100%" stop-color="#06202b"/>
    </linearGradient>
    <linearGradient id="s" x1="0" y1="0" x2="0" y2="1">
      <stop offset="0%" stop-color="#f4bd5e"/>
      <stop offset="100%" stop-color="#d2872a"/>
    </linearGradient>
    <clipPath id="c">
      <path d="M20 1.5A15.5 15.5 0 0 1 35.5 17v20.5a1 1 0 0 1-1 1h-29a1 1 0 0 1-1-1V17A15.5 15.5 0 0 1 20 1.5Z"/>
    </clipPath>
  </defs>
  <path d="M20 1.5A15.5 15.5 0 0 1 35.5 17v20.5a1 1 0 0 1-1 1h-29a1 1 0 0 1-1-1V17A15.5 15.5 0 0 1 20 1.5Z" fill="url(#a)"/>
  <g clip-path="url(#c)">
    <circle cx="20" cy="25" r="8.4" fill="url(#s)"/>
    <rect x="2" y="25" width="36" height="15" fill="#1f7fa0"/>
    <rect x="2" y="25" width="36" height="1" fill="#86c2d6"/>
    <path d="M2 30c3.6 0 3.6 1.7 7.2 1.7S12.8 30 16.4 30s3.6 1.7 7.2 1.7S27.2 30 30.8 30s3.6 1.7 7.2 1.7" fill="none" stroke="#bfdee8" stroke-width="1" stroke-linecap="round" opacity=".55"/>
    <path d="M2 34.2c3.6 0 3.6 1.7 7.2 1.7s3.6-1.7 7.2-1.7 3.6 1.7 7.2 1.7 3.6-1.7 7.2-1.7 3.6 1.7 7.2 1.7" fill="none" stroke="#bfdee8" stroke-width="1" stroke-linecap="round" opacity=".35"/>
  </g>
</svg>
